<?xml version="1.0" encoding="UTF-8"?>
<svg xmlns="http://www.w3.org/2000/svg" xmlns:xlink="http://www.w3.org/1999/xlink" width="312px" height="312px" viewBox="0 0 312 312" version="1.1">
<g id="surface1">
<path style=" stroke:none;fill-rule:nonzero;fill:rgb(52.941176%,86.27451%,100%);fill-opacity:1;" d="M 312 156 C 312 242.15625 242.15625 312 156 312 C 69.84375 312 0 242.15625 0 156 C 0 69.84375 69.84375 0 156 0 C 242.15625 0 312 69.84375 312 156 Z M 312 156 "/>
<path style=" stroke:none;fill-rule:nonzero;fill:rgb(74.509804%,90.980392%,43.137255%);fill-opacity:1;" d="M 174.164062 1.085938 L 167.722656 21.152344 C 166.164062 26.007812 162.261719 29.75 157.34375 31.097656 L 141.1875 35.527344 C 139.886719 35.882812 138.542969 36.066406 137.195312 36.066406 L 113.019531 36.066406 C 110.496094 36.066406 108.363281 37.933594 108.03125 40.429688 L 105.257812 61.226562 L 89.816406 62.035156 C 87.21875 62.171875 85.15625 64.261719 85.050781 66.859375 L 84.515625 80.28125 C 84.398438 83.300781 86.949219 85.746094 89.964844 85.496094 L 100.25 84.636719 C 102.894531 84.417969 105.3125 83.046875 106.859375 80.890625 L 116.371094 67.621094 L 136.71875 66.894531 C 141.074219 66.738281 144.148438 71.117188 142.566406 75.175781 C 139.023438 84.28125 139.015625 85.0625 139.015625 85.863281 C 139.015625 88.644531 141.269531 90.894531 144.050781 90.894531 C 146.535156 90.894531 148.605469 89.085938 149.007812 86.71875 C 149.351562 85.558594 150.886719 81.539062 152.898438 76.433594 C 153.742188 74.300781 156.636719 73.988281 157.898438 75.898438 L 159.199219 77.867188 C 161.605469 81.511719 166.082031 83.1875 170.289062 82.019531 L 179.273438 79.523438 C 181.777344 78.832031 183.800781 76.980469 184.71875 74.550781 L 186.441406 69.976562 C 187.65625 66.746094 190.445312 64.367188 193.824219 63.671875 L 199.628906 62.472656 C 203.582031 61.65625 207.773438 64.046875 208.460938 68.019531 C 209.164062 72.082031 206.308594 75.773438 202.34375 76.230469 L 188.339844 76.605469 C 185.492188 76.679688 183.207031 78.976562 183.136719 81.824219 L 183.105469 83.164062 C 183.082031 84.242188 183.675781 85.238281 184.632812 85.726562 L 192.6875 89.835938 C 195.75 91.398438 196.75 95.296875 194.816406 98.140625 C 193.75 99.707031 191.980469 100.644531 190.085938 100.644531 L 147.617188 100.644531 C 146.507812 100.644531 145.40625 100.433594 144.371094 100.027344 L 108.734375 85.988281 C 106.097656 84.949219 103.097656 85.511719 101.015625 87.4375 L 67.265625 118.628906 C 64.574219 121.117188 63.449219 124.871094 64.324219 128.425781 L 71.1875 156.304688 C 72.246094 160.605469 75.992188 163.710938 80.417969 163.949219 L 118.441406 165.992188 C 125.921875 166.394531 131.976562 172.222656 132.664062 179.683594 L 135.550781 210.996094 C 135.765625 213.339844 136.382812 215.597656 137.398438 217.71875 C 140.605469 224.40625 148.074219 239.597656 152.226562 244.851562 C 157.574219 251.613281 170.746094 251.882812 175.1875 247.839844 L 206.101562 222.539062 C 208.6875 220.1875 210.375 217.011719 210.878906 213.554688 L 214.5 188.710938 L 239.050781 161.65625 C 241.441406 159.019531 240.367188 154.976562 237.324219 153.671875 L 236.882812 153.964844 C 235.023438 155.214844 232.875 155.96875 230.652344 156.167969 C 230.257812 156.199219 229.867188 156.222656 229.472656 156.222656 C 224.921875 156.222656 220.703125 153.910156 218.25 150.007812 L 199.507812 120.246094 C 198.027344 117.894531 198.734375 114.789062 201.085938 113.304688 C 203.453125 111.835938 206.542969 112.539062 208.027344 114.882812 L 226.769531 144.648438 C 227.414062 145.679688 228.554688 146.242188 229.773438 146.140625 C 230.308594 146.09375 230.835938 145.90625 231.285156 145.605469 L 256.621094 131.722656 C 259.261719 130.273438 259.960938 126.796875 258.085938 124.441406 C 257.042969 123.132812 255.398438 122.453125 253.734375 122.644531 L 248.414062 123.257812 C 246.984375 123.421875 245.550781 122.964844 244.480469 122.007812 L 228.542969 107.753906 C 226.476562 105.898438 226.300781 102.71875 228.152344 100.644531 C 230 98.574219 233.179688 98.402344 235.257812 100.253906 L 249.507812 113 L 258.167969 112.003906 C 259.960938 111.78125 261.742188 112.566406 262.808594 114.03125 L 264.472656 116.3125 L 272.914062 115.300781 C 277.015625 114.808594 281 116.871094 282.964844 120.503906 L 300.007812 152.019531 C 301.246094 154.304688 303.316406 156.023438 305.792969 156.816406 L 311.925781 158.96875 C 311.941406 157.980469 312 156.996094 312 156 C 312 75.992188 251.757812 10.089844 174.164062 1.085938 Z M 239.332031 87.199219 C 238.472656 87.785156 237.488281 88.0625 236.519531 88.0625 C 234.90625 88.0625 233.316406 87.289062 232.347656 85.847656 L 221.867188 70.332031 C 220.308594 68.035156 220.914062 64.902344 223.21875 63.351562 C 225.511719 61.785156 228.652344 62.402344 230.199219 64.703125 L 240.683594 80.214844 C 242.242188 82.515625 241.636719 85.644531 239.332031 87.199219 Z M 239.332031 87.199219 "/>
<path style=" stroke:none;fill-rule:nonzero;fill:rgb(0%,76.470588%,100%);fill-opacity:1;" d="M 207.160156 260.839844 C 121.003906 260.839844 51.160156 190.996094 51.160156 104.839844 C 51.160156 74.871094 59.628906 46.886719 74.277344 23.117188 C 29.714844 50.582031 0 99.8125 0 156 C 0 242.15625 69.84375 312 156 312 C 212.1875 312 261.417969 282.285156 288.882812 237.722656 C 265.113281 252.371094 237.132812 260.839844 207.160156 260.839844 Z M 207.160156 260.839844 "/>
<path style=" stroke:none;fill-rule:nonzero;fill:rgb(74.509804%,90.980392%,43.137255%);fill-opacity:1;" d="M 223.929688 238.402344 C 222.789062 238.402344 221.640625 238.015625 220.699219 237.222656 C 218.570312 235.4375 218.292969 232.261719 220.082031 230.132812 L 233.292969 214.40625 C 235.074219 212.285156 238.257812 212.003906 240.382812 213.792969 C 242.511719 215.582031 242.789062 218.757812 241 220.882812 L 227.789062 236.609375 C 226.796875 237.792969 225.367188 238.402344 223.929688 238.402344 Z M 223.929688 238.402344 "/>
<path style=" stroke:none;fill-rule:nonzero;fill:rgb(74.509804%,90.980392%,43.137255%);fill-opacity:1;" d="M 113.082031 6.027344 L 108.605469 19.367188 C 107.722656 22.003906 109.140625 24.855469 111.777344 25.742188 C 112.308594 25.917969 112.847656 26.003906 113.378906 26.003906 C 115.480469 26.003906 117.441406 24.675781 118.152344 22.570312 L 124.667969 3.152344 C 120.746094 3.949219 116.894531 4.9375 113.082031 6.027344 Z M 113.082031 6.027344 "/>
<path style=" stroke:none;fill-rule:nonzero;fill:rgb(68.627451%,84.313725%,33.333333%);fill-opacity:1;" d="M 26.125 242.417969 L 30.480469 202.859375 C 30.828125 199.753906 29.714844 196.664062 27.464844 194.496094 L 0.609375 169.382812 C 2.894531 196.246094 11.960938 221.167969 26.125 242.417969 Z M 26.125 242.417969 "/>
<path style=" stroke:none;fill-rule:nonzero;fill:rgb(74.509804%,90.980392%,43.137255%);fill-opacity:1;" d="M 156 0 C 150.355469 0 144.789062 0.316406 139.300781 0.902344 L 138.777344 12.707031 C 137.457031 16.664062 139.589844 20.941406 143.546875 22.257812 C 144.339844 22.523438 145.144531 22.644531 145.9375 22.644531 C 149.09375 22.644531 152.042969 20.644531 153.097656 17.484375 L 158.898438 0.0742188 C 157.929688 0.0546875 156.972656 0 156 0 Z M 156 0 "/>
</g>
</svg>
