<?xml version="1.0" standalone="no"?>
<!DOCTYPE svg PUBLIC "-//W3C//DTD SVG 1.0//EN" "http://www.w3.org/TR/2001/REC-SVG-20010904/DTD/svg10.dtd">
<svg xmlns="http://www.w3.org/2000/svg" xmlns:xlink="http://www.w3.org/1999/xlink" id="body_1" width="312" height="312">

<g transform="matrix(0.609375 0 0 0.609375 0 0)">
	<g>
		<g>
            <path d="M450.354 422.61C 488.776 377.83197 512 319.63098 512 255.99998C 512 114.61499 397.385 -1.5258789E-05 256 -1.5258789E-05C 129.54001 -1.5258789E-05 24.511002 91.69898 3.7429962 212.22798C 3.9519963 212.87099 72.288994 422.61 450.354 422.61z" stroke="none" fill="#514BBF" fill-rule="nonzero" />
		</g>
		<g>
            <path d="M296.598 203.088C 296.598 154.829 311.238 109.989 336.319 72.76799C 336.319 72.76799 77.72101 98.56299 1.6929932 285.419C 1.6949931 285.44 1.6979932 285.46 1.7009932 285.48C 1.7969931 285.626 2.2309933 286.284 3.0199933 287.394C 16.233994 305.99503 143.66699 515 421.065 451.659C 431.586 442.773 441.387 433.06 450.354 422.61C 360.664 390.02197 296.59802 304.039 296.59802 203.08798L296.59802 203.08798L296.598 203.088z" stroke="none" fill="#64B6EC" fill-rule="nonzero" />
		</g>
		<g>
            <path d="M299.361 167.088C 304.703 132.569 317.602 100.547 336.32 72.769C 336.32 72.769 77.722015 98.563995 1.6940002 285.41998C 1.6960002 285.44098 1.6990002 285.46097 1.7020003 285.481C 1.7980002 285.62698 2.2320004 286.28497 3.0210004 287.395C 7.8910003 294.249 28.277 326.965 65.962006 362.378C 91.884 254.89299 185.617 173.86299 299.36102 167.088L299.36102 167.088L299.361 167.088z" stroke="none" fill="#4B9FDB" fill-rule="nonzero" />
		</g>
		<g>
            <path d="M275.193 471.551C 194.49799 392.087 171.87799 266.13 227.90298 161.12201C 253.43198 113.27401 291.667 76.56001 336.22498 52.92401C 336.22498 52.92401 88.38597 96.56301 1.6939697 285.423C 7.1569695 333.154 25.74597 376.894 53.75897 412.946C 54.308968 413.34802 134.46997 471.651 275.19296 471.55103L275.19296 471.55103L275.193 471.551z" stroke="none" fill="#4B9FDB" fill-rule="nonzero" />
		</g>
		<g>
            <path d="M216.098 186.348C 219.55101 177.83101 223.48001 169.41101 227.90302 161.12201C 253.432 113.27401 291.66702 76.56001 336.225 52.92401C 336.225 52.92401 88.386 96.56301 1.6940002 285.423C 7.157 333.154 25.746 376.894 53.759 412.946C 53.837997 413.00403 55.574997 414.26602 58.895 416.375C 61.373 312.662 125.534 224.233 216.098 186.348z" stroke="none" fill="#3188CA" fill-rule="nonzero" />
		</g>
		<g>
            <path d="M256.072 367.559C 233.749 334.705 222.97499 297.406 222.833 260.464C 222.833 260.464 82.211 285.53 76.938995 438.932L76.938995 438.932L227.355 510.39502C 236.761 511.44302 246.314 512 256 512C 318.904 512 376.497 489.299 421.06598 451.659C 357.54898 453.592 294.43097 424.014 256.07196 367.559L256.07196 367.559L256.072 367.559z" stroke="none" fill="#A1DDFB" fill-rule="nonzero" />
		</g>
		<g>
            <path d="M76.955 438.939C 117.202 388.711 175.98001 353.981 242.931 345.123C 229.501 318.197 222.944 289.222 222.83301 260.46298C 222.83301 260.46298 82.21101 285.529 76.93901 438.93097L76.93901 438.93097L76.955 438.939z" stroke="none" fill="#7DCFFF" fill-rule="nonzero" />
		</g>
		<g>
            <path d="M169.403 359.495C 172.079 319.865 186.588 283.854 209.248 254.678C 209.248 254.678 70.211 292.19598 76.938995 438.931C 116.689995 477.847 169.066 503.905 227.358 510.396C 188.242 472.421 165.442 418.149 169.403 359.495z" stroke="none" fill="#7DCFFF" fill-rule="nonzero" />
		</g>
		<g>
            <path d="M76.952 438.944C 101.531006 408.268 133.022 383.376 169.068 366.624C 169.14099 364.254 169.24199 361.88 169.403 359.495C 172.079 319.865 186.588 283.854 209.248 254.678C 209.248 254.678 70.211 292.19598 76.938995 438.931C 76.94299 438.936 76.947 438.94 76.951996 438.944L76.951996 438.944L76.952 438.944z" stroke="none" fill="#64B6EC" fill-rule="nonzero" />
		</g>
		<g>
            <path d="M463 54C 459 67.667 358 63 358 83C 358 103 433 123 414 144C 395 165 330 87 152 155C 69.8 186.41 21.550003 252.48999 1.6799927 285.45C 0.56999266 275.79 -7.2717667E-06 265.96002 -7.2717667E-06 256C -7.2717667E-06 241.07 1.2799927 226.44 3.7399926 212.22C 25.589993 175.17 78.44999 104.3 183.99998 54C 239.90999 27.36 294.27 16.060001 339.94998 14.09C 416.00998 10.81 468.95996 33.637 463 54z" stroke="none" fill="#A1DDFB" fill-rule="nonzero" />
		</g>
		<g>
            <path d="M133.667 248.333C 71.90901 294.525 56.28801 375.10498 53.750008 412.94C 60.88701 422.125 68.64001 430.806 76.93901 438.932C 83.22501 416.379 101.15701 361.239 133.667 328.729C 191.794 270.602 281.131 320.673 293.667 301.667C 306.333 282.462 256 264.333 256 264.333C 256 264.333 337.667 260.333 340.333 234.33301C 343 208.33301 215.90302 186.824 133.667 248.33301L133.667 248.33301L133.667 248.333z" stroke="none" fill="#A1DDFB" fill-rule="nonzero" />
		</g>
		<g>
            <path d="M242.931 80.569C 205.862 70.138 205 32 339.95 14.090004C 294.27002 16.060003 239.91 27.360004 184.00002 54.000004C 78.45001 104.3 25.590012 175.17 3.7400208 212.22C 1.2800207 226.44 2.0742416E-05 241.07 2.0742416E-05 256C 2.0742416E-05 265.96 0.57002074 275.79 1.6800207 285.45C 21.550022 252.49002 69.800026 186.41 152.00003 155.00002C 152.00003 155.00002 280.00003 91.000015 242.93103 80.569016L242.93103 80.569016L242.931 80.569z" stroke="none" fill="#7DCFFF" fill-rule="nonzero" />
		</g>
		<g>
            <path d="M206.278 215.218C 181.094 221.281 155.761 231.807 133.666 248.33301C 71.909 294.52502 56.288002 375.105 53.75 412.94C 60.887 422.125 68.64 430.806 76.938995 438.932C 83.225 416.379 101.157 361.239 133.66699 328.729C 136.689 325.707 139.79999 322.992 142.97699 320.53L142.97699 320.53L142.97598 320.516C 142.97598 320.516 193.00098 273.999 166.00098 268.16998C 139.00798 262.34198 164.48598 226.02098 206.27798 215.21799L206.27798 215.21799L206.278 215.218z" stroke="none" fill="#7DCFFF" fill-rule="nonzero" />
		</g>
	</g>
</g>
</svg>