<?xml version="1.0" standalone="no"?>
<!DOCTYPE svg PUBLIC "-//W3C//DTD SVG 1.0//EN" "http://www.w3.org/TR/2001/REC-SVG-20010904/DTD/svg10.dtd">
<svg xmlns="http://www.w3.org/2000/svg" xmlns:xlink="http://www.w3.org/1999/xlink" id="body_1" width="312" height="312">

<g transform="matrix(0.609375 0 0 0.609375 0 0)">
	<g>
		<g>
            <path d="M512 256C 512 287.73 506.23 318.1 495.67 346.14L495.67 346.14L463.61002 368.32C 338.7 454.77002 173.30002 454.77002 48.390015 368.32L48.390015 368.32L16.340015 346.14L16.330015 346.14C 5.770015 318.1 1.5258789E-05 287.73 1.5258789E-05 256C 1.5258789E-05 114.619995 114.62002 0 256 0C 397.37997 0 512 114.62 512 256z" stroke="none" fill="#92EAFF" fill-rule="nonzero" />
            <path d="M512 256C 512 287.73 506.23 318.1 495.67 346.14L495.67 346.14L495.66 346.15002L463.61002 368.32004C 338.7 454.77002 173.30002 454.77002 48.390015 368.32004L48.390015 368.32004L16.340015 346.14005L16.330015 346.14005C 5.770015 318.10004 1.5258789E-05 287.72003 1.5258789E-05 256.00006C 1.5258789E-05 209.78006 12.250015 166.43005 33.680016 129.00006C 77.80002 206.07007 160.84003 258.00006 256.00003 258.00006C 351.16003 258.00006 434.2 206.07007 478.32004 129.00006C 499.75003 166.43005 512.00006 209.78006 512.00006 256.00006L512.00006 256.00006L512 256z" stroke="none" fill="#63DBFA" fill-rule="nonzero" />
		</g>
		<g>
            <path d="M512 256C 512 272.85 510.37 289.31 507.27 305.24C 504.52 319.31998 500.61 332.99 495.66998 346.13998L495.66998 346.13998L463.61 368.31998C 338.69998 454.76996 173.29999 454.76996 48.389984 368.31998L48.389984 368.31998L38.719986 361.628C 22.835987 350.636 11.399986 334.23398 6.9449863 315.438C 6.9199862 315.332 6.894986 315.22598 6.8699865 315.12C 4.8099866 306.46 3.1999865 297.63 2.0599866 288.65C 1.4499866 283.83 0.96998656 278.96 0.62998664 274.06C 0.47998664 271.96 0.35998663 269.85 0.26998663 267.73C 15.359987 262.62003 32.269985 262.42 48.269985 264.44C 69.89999 267.17 90.98999 273.53 112.69998 275.5C 149.62997 278.85 186.80998 269.37 223.77998 272.39C 234.61998 273.27002 245.32999 275.22 255.99998 277.55002C 283.94998 283.66 311.53998 292.39 340.00998 291.44003C 379.27997 290.14005 415.24 270.69003 451.65997 255.97003C 470.61996 248.31003 491.16998 241.93004 511.49997 239.98003C 511.77997 244.45003 511.93997 248.95003 511.98996 253.48003C 511.99997 254.32002 511.99997 255.16002 511.99997 256.00003L511.99997 256.00003L512 256z" stroke="none" fill="#D1F6FF" fill-rule="nonzero" />
            <path d="M512 256C 512 272.85 510.37 289.31 507.27 305.24C 504.52 319.31998 500.61 332.99 495.66998 346.13998L495.66998 346.13998L463.61 368.31998C 401.15997 411.53998 328.58 433.15997 255.99998 433.15997L255.99998 433.15997L255.99998 277.55C 283.94998 283.65997 311.53998 292.38998 340.00998 291.44C 379.27997 290.14 415.24 270.69 451.65997 255.97C 470.61996 248.31 491.16998 241.93001 511.49997 239.98C 511.77997 244.45 511.93997 248.95 511.98996 253.48C 511.99997 254.31999 511.99997 255.15999 511.99997 256L511.99997 256L512 256z" stroke="none" fill="#C5F2F9" fill-rule="nonzero" />
            <path d="M507.27 305.24C 504.52 319.31998 500.61 332.99 495.66998 346.13998L495.66998 346.13998L463.61 368.31998C 338.69998 454.76996 173.29999 454.76996 48.389984 368.31998L48.389984 368.31998L38.719986 361.628C 22.835987 350.636 11.399986 334.23398 6.9449863 315.438C 6.9199862 315.332 6.894986 315.22598 6.8699865 315.12C 12.629987 315.13998 18.399986 315.33 24.049988 315.62C 46.58999 316.77 68.56999 319.47 91.19999 320.3C 129.69998 321.72 168.43999 317.69998 206.96999 318.97998C 223.49998 319.52997 239.76999 321.05 255.99998 322.62C 279.9 324.94 303.69998 327.38998 328.12 327.06C 369.05 326.5 406.52 318.27 444.49 312.03C 464.38 308.77 485.94998 306.04 507.27 305.24z" stroke="none" fill="#FFFFFF" fill-rule="nonzero" />
            <path d="M507.27 305.24C 504.52 319.31998 500.61 332.99 495.66998 346.13998L495.66998 346.13998L463.61 368.31998C 401.15997 411.53998 328.58 433.15997 255.99998 433.15997L255.99998 433.15997L255.99998 322.61996C 279.9 324.93997 303.69998 327.38995 328.12 327.05997C 369.05 326.49997 406.52 318.26996 444.49 312.02997C 464.38 308.76996 485.94998 306.03998 507.27 305.23996L507.27 305.23996L507.27 305.24z" stroke="none" fill="#DFF7FD" fill-rule="nonzero" />
            <path d="M495.67 346.14C 484.31003 376.35 467.39 403.85 446.17 427.38C 445.82 427.77002 445.46002 428.16 445.11002 428.55002C 439.38 434.82 433.35 440.81003 427.03003 446.48L427.03003 446.48L425.46002 446.48C 420.51 446.48 416.49002 450.5 416.49002 455.45C 414.08002 457.39 411.64 459.29 409.16003 461.14C 366.64005 492.94 313.92004 511.82 256.79004 512L256.79004 512L256.00003 512C 181.10004 512 113.71004 479.83002 66.89003 428.55C 52.43003 412.71 39.93003 395.05 29.790031 375.94C 26.530031 369.81 23.51003 363.52 20.75003 357.1C 19.190031 353.49002 17.72003 349.84 16.34003 346.14L16.34003 346.14L495.67 346.14z" stroke="none" fill="#FFC0A4" fill-rule="nonzero" />
            <path d="M495.67 346.14C 484.12003 376.85 466.83002 404.76 445.11002 428.55002C 439.38 434.82 433.35 440.81003 427.03003 446.48L427.03003 446.48L425.46002 446.48C 420.51 446.48 416.49002 450.5 416.49002 455.45C 414.08002 457.39 411.64 459.29 409.16003 461.14C 366.64005 492.94 313.92004 511.82 256.79004 512L256.79004 512L256.00003 512L256.00003 346.14L495.67 346.14z" stroke="none" fill="#FFA87A" fill-rule="nonzero" />
			<g>
                <path d="M446.17 427.38C 445.82 427.77002 445.46002 428.16 445.11002 428.55002C 434.19 440.51 422.15002 451.43002 409.16 461.14C 366.64 492.94 313.92 511.82 256.79 512L256.79 512L256 512C 181.1 512 113.71001 479.83002 66.89 428.55C 52.43 412.71 39.93 395.05 29.79 375.94C 26.53 369.81 23.51 363.52 20.75 357.1C 11.51 335.65 5.12 312.67 2.0599995 288.65002C 12.98 286.61002 25.22 288.88004 35.14 294.23C 51.9 303.26 63.879997 318.89 76.36 333.28C 88.840004 347.66998 103.36 361.84 121.92 366.1C 145.22 371.44 172.33 360.57 192.17 373.9C 207.03 383.88 212.70999 404.81 228.97 412.31C 237.54001 416.26 246.66 415.52 256 413.53C 269.49 410.65 283.45 405.16 296.91 407.42C 310.57 409.71002 321.61002 419.67 334.55 424.62003C 357.65 433.46002 380.84998 425.11002 404.09998 422.26004C 420.08 420.30005 433.30997 421.17004 446.16998 427.38004L446.16998 427.38004L446.17 427.38z" stroke="none" fill="#7E7F92" fill-rule="nonzero" />
			</g>
            <path d="M446.17 427.38C 445.82 427.77002 445.46002 428.16 445.11002 428.55002C 439.38 434.82 433.35 440.81003 427.03003 446.48L427.03003 446.48L425.46002 446.48C 420.51 446.48 416.49002 450.5 416.49002 455.45C 414.08002 457.39 411.64 459.29 409.16003 461.14C 366.64005 492.94 313.92004 511.82 256.79004 512L256.79004 512L256.00003 512L256.00003 413.53C 269.49002 410.65 283.45004 405.16 296.91003 407.42C 310.57004 409.71002 321.61005 419.67 334.55005 424.62003C 357.65005 433.46002 380.85004 425.11002 404.10004 422.26004C 420.08005 420.30005 433.31003 421.17004 446.17004 427.38004L446.17004 427.38004L446.17 427.38z" stroke="none" fill="#6E6F83" fill-rule="nonzero" />
            <path d="M409.16 461.14C 366.64 492.94 313.92 511.82 256.79 512L256.79 512L256 512C 181.1 512 113.71001 479.83002 66.89 428.55C 52.43 412.71 39.93 395.05 29.79 375.94C 26.53 369.81 23.51 363.52 20.75 357.1C 31.25 360.59 40.989998 366.29 48.940002 374.03C 60.29 385.09 68.43 399.91998 82.36 407.46C 110.58 422.72 149.5 401.59 176.13 419.46C 188.62001 427.83 195.36 443.24 208.51001 450.52C 222.86002 458.47 239.34001 454.44998 256 450.55C 270.3 447.21 284.73 443.94998 298.08002 448.41998C 312.37003 453.19998 323.18002 466.31998 337.99002 469.09C 352.52002 471.81 366.68002 463.91 381.15002 460.87C 390.36002 458.94 399.98 459.08 409.16003 461.13998L409.16003 461.13998L409.16 461.14z" stroke="none" fill="#6E6F83" fill-rule="nonzero" />
            <path d="M242.346 82.397C 242.346 102.049 226.41199 117.983 206.76 117.983C 187.09999 117.983 171.174 102.049 171.174 82.397C 171.174 62.737003 187.09999 46.803 206.76 46.803C 226.41199 46.803 242.346 62.737 242.346 82.397z" stroke="none" fill="#FFF9BB" fill-rule="nonzero" />
            <path d="M242.346 82.397C 242.346 102.049 226.41199 117.983 206.76 117.983L206.76 117.983L206.76 46.803C 226.41199 46.803 242.346 62.737 242.346 82.397z" stroke="none" fill="#FFEB98" fill-rule="nonzero" />
			<g>
                <path d="M57.114 205.904C 57.114 205.83 57.107998 205.757 57.107998 205.68301C 57.107998 192.15001 68.078995 181.17801 81.613 181.17801C 84.827995 181.17801 87.895996 181.80402 90.709 182.92902C 96.143 173.19402 106.54 166.60701 118.481 166.60701C 133.987 166.60701 146.893 177.712 149.698 192.40102C 150.534 192.28102 151.388 192.21602 152.257 192.21602C 160.688 192.21602 167.751 198.05202 169.639 205.90402L169.639 205.90402L57.114 205.904z" stroke="none" fill="#FFFFFF" fill-rule="nonzero" />
                <path d="M81.023 205.904C 81.023 205.86101 81.020004 205.82 81.020004 205.77701C 81.020004 197.99501 87.329 191.686 95.11101 191.686C 96.96001 191.686 98.72401 192.046 100.34101 192.69301C 103.46601 187.095 109.44401 183.30801 116.31001 183.30801C 125.22601 183.30801 132.64801 189.69301 134.26102 198.14001C 134.74202 198.07101 135.23302 198.03302 135.73302 198.03302C 140.58102 198.03302 144.64302 201.38902 145.72801 205.90402L145.72801 205.90402L81.023 205.904z" stroke="none" fill="#DFF7FD" fill-rule="nonzero" />
			</g>
			<g>
                <path d="M423.664 104.636C 423.664 104.556 423.67 104.477005 423.67 104.397C 423.67 89.756004 411.80103 77.887 397.161 77.887C 393.683 77.887 390.364 78.564 387.321 79.782C 381.44202 69.251 370.195 62.125 357.277 62.125C 340.502 62.125 326.54 74.138 323.506 90.029C 322.601 89.899 321.678 89.828 320.737 89.828C 311.617 89.828 303.975 96.142006 301.93298 104.635L301.93298 104.635L423.664 104.635L423.664 104.636z" stroke="none" fill="#FFFFFF" fill-rule="nonzero" />
                <path d="M397.798 104.636C 397.798 104.590004 397.801 104.545 397.801 104.499C 397.801 96.08 390.97598 89.256 382.55798 89.256C 380.55798 89.256 378.65 89.645 376.9 90.34499C 373.52 84.288994 367.052 80.19199 359.624 80.19199C 349.978 80.19199 341.94998 87.09999 340.205 96.23799C 339.685 96.163994 339.154 96.12299 338.61298 96.12299C 333.369 96.12299 328.97498 99.75299 327.8 104.63799L327.8 104.63799L397.79797 104.63799L397.798 104.636z" stroke="none" fill="#DFF7FD" fill-rule="nonzero" />
			</g>
			<g>
                <path d="M460.426 213.357C 460.426 213.301 460.43 213.246 460.43 213.18999C 460.43 202.96698 452.142 194.67899 441.919 194.67899C 439.49002 194.67899 437.173 195.152 435.048 196.00198C 430.943 188.64798 423.089 183.67198 414.069 183.67198C 402.355 183.67198 392.606 192.06097 390.487 203.15698C 389.855 203.06598 389.21 203.01698 388.554 203.01698C 382.185 203.01698 376.84998 207.42598 375.42297 213.35698L375.42297 213.35698L460.426 213.357z" stroke="none" fill="#FFFFFF" fill-rule="nonzero" />
                <path d="M442.364 213.357C 442.364 213.325 442.36603 213.293 442.36603 213.261C 442.36603 207.382 437.60004 202.617 431.72202 202.617C 430.325 202.617 428.993 202.889 427.77103 203.378C 425.41104 199.149 420.894 196.28801 415.70703 196.28801C 408.97104 196.28801 403.36502 201.11201 402.14703 207.492C 401.78403 207.44 401.41302 207.41101 401.03503 207.41101C 397.37305 207.41101 394.30502 209.94601 393.48404 213.35701L393.48404 213.35701L442.364 213.357z" stroke="none" fill="#DFF7FD" fill-rule="nonzero" />
			</g>
            <path d="M427.03 446.48C 423.6 449.57 420.08 452.56 416.49 455.45C 401.47998 447.2 387.63998 436.33002 375.28 422.97C 347.05 392.48 327.11 350.2 317.61 300.72C 316.93997 297.19 319.25 293.79 322.77 293.11002C 326.3 292.43002 329.71 294.74002 330.37997 298.27002C 339.41998 345.36002 358.24 385.43002 384.81998 414.14C 397.55 427.90002 411.64996 438.69 427.02997 446.48L427.02997 446.48L427.03 446.48z" stroke="none" fill="#A44E3E" fill-rule="nonzero" />
			<g>
				<g>
                    <path d="M323.998 299.494C 312.818 283.951 293.646 274.931 273.349 277.67297C 253.052 280.416 236.961 294.201 230.307 312.15298L230.307 312.15298L323.998 299.494z" stroke="none" fill="#43AF3E" fill-rule="nonzero" />
                    <path d="M323.998 299.494C 327.08298 280.598 319.905 260.663 303.61298 248.24998C 287.32095 235.83698 266.19598 234.20699 248.79597 242.19598L248.79597 242.19598L323.998 299.494z" stroke="none" fill="#00A23E" fill-rule="nonzero" />
				</g>
				<g>
                    <path d="M323.998 299.494C 330.65198 281.542 346.74298 267.75598 367.03998 265.01398C 387.33698 262.27197 406.50998 271.292 417.68896 286.83496L417.68896 286.83496L323.998 299.494z" stroke="none" fill="#00A23E" fill-rule="nonzero" />
                    <path d="M323.998 299.494C 316.00897 282.095 317.63898 260.969 330.05197 244.67798C 342.46497 228.38599 362.40097 221.20798 381.29596 224.29298L381.29596 224.29298L323.998 299.494z" stroke="none" fill="#008839" fill-rule="nonzero" />
                    <path d="M323.998 299.494C 334.77 294.54797 347.849 295.55698 357.93597 303.24197C 368.02197 310.92697 372.46597 323.26898 370.55597 334.968L370.55597 334.968L323.998 299.494z" stroke="none" fill="#008839" fill-rule="nonzero" />
                    <path d="M323.998 299.494C 312.3 297.58398 299.95697 302.02798 292.27197 312.11398C 284.58698 322.19998 283.57797 335.279 288.524 346.05197L288.524 346.05197L323.998 299.494z" stroke="none" fill="#00A23E" fill-rule="nonzero" />
				</g>
			</g>
			<g>
                <path d="M445.58 428.04C 430.68 413.76 418.25 396.61002 408.61 376.87C 388.43 335.57 380.78998 284.41998 386.50998 228.94C 386.87997 225.37 390.05997 222.78 393.63998 223.15001C 397.21 223.51001 399.81 226.71 399.43997 230.28001C 393.96997 283.33002 401.17996 332.05002 420.28998 371.17C 429.24997 389.51 440.50998 405.24002 453.97998 418.30002L453.97998 418.30002L445.58 428.04z" stroke="none" fill="#A44E3E" fill-rule="nonzero" />
				<g>
					<g>
                        <path d="M392.974 229.611C 386.067 209.52399 368.583 193.81 346.143 190.234C 323.703 186.65799 302.2 196.15799 289.391 213.103L289.391 213.103L392.974 229.611z" stroke="none" fill="#43AF3E" fill-rule="nonzero" />
                        <path d="M392.974 229.611C 402.294 210.523 401.042 187.049 387.703 168.652C 374.364 150.25499 352.44202 141.769 331.403 144.693L331.403 144.693L392.974 229.611z" stroke="none" fill="#00A23E" fill-rule="nonzero" />
					</g>
					<g>
                        <path d="M392.974 229.611C 405.783 212.66599 427.285 203.16599 449.726 206.74199C 472.16602 210.318 489.65002 226.03198 496.557 246.11899L496.557 246.11899L392.974 229.611z" stroke="none" fill="#00A23E" fill-rule="nonzero" />
                        <path d="M392.974 229.611C 390.05 208.57199 398.536 186.65 416.93298 173.31099C 435.32996 159.97198 458.804 158.721 477.89197 168.04L477.89197 168.04L392.974 229.611z" stroke="none" fill="#008839" fill-rule="nonzero" />
                        <path d="M392.974 229.611C 406 227.801 419.572 233.055 427.83 244.444C 436.08798 255.83301 436.86298 270.367 431.093 282.184L431.093 282.184L392.974 229.611z" stroke="none" fill="#008839" fill-rule="nonzero" />
                        <path d="M392.974 229.611C 381.156 223.84099 366.623 224.616 355.234 232.874C 343.844 241.13199 338.59 254.704 340.401 267.72998L340.401 267.72998L392.974 229.611z" stroke="none" fill="#00A23E" fill-rule="nonzero" />
					</g>
				</g>
			</g>
            <path d="M409.16 461.14C 366.64 492.94 313.92 511.82 256.79 512L256.79 512L256 512L256 450.55C 270.3 447.21 284.73 443.94998 298.08002 448.41998C 312.37003 453.19998 323.18002 466.31998 337.99002 469.09C 352.52002 471.81 366.68002 463.91 381.15002 460.87C 390.36002 458.94 399.98 459.08 409.16003 461.13998L409.16003 461.13998L409.16 461.14z" stroke="none" fill="#605F74" fill-rule="nonzero" />
		</g>
	</g>
</g>
</svg>