<?xml version="1.0" standalone="no"?>
<!DOCTYPE svg PUBLIC "-//W3C//DTD SVG 1.0//EN" "http://www.w3.org/TR/2001/REC-SVG-20010904/DTD/svg10.dtd">
<svg xmlns="http://www.w3.org/2000/svg" xmlns:xlink="http://www.w3.org/1999/xlink" id="body_1" width="312" height="312">

<g transform="matrix(0.609375 0 0 0.609375 0 0)">
    <path d="M55.583 326.76C 80.634 326.76 80.634 309.273 105.685 309.273C 130.737 309.273 130.737 326.76 155.789 326.76C 180.842 326.76 180.842 309.273 205.894 309.273C 230.946 309.273 230.946 326.76 255.998 326.76C 281.047 326.76 281.047 309.273 306.096 309.273C 331.148 309.273 331.148 326.76 356.2 326.76C 381.252 326.76 381.252 309.273 406.30502 309.273C 431.35803 309.273 431.35803 326.76 456.41202 326.76C 477.88803 326.76 480.97302 313.923 497.19202 310.254C 499.69302 296.214 500.99902 281.76 500.99902 267.001C 500.99902 131.692 391.30902 22.002014 256.00003 22.002014C 120.69104 22.002014 11.001038 131.69202 11.001038 267.001C 11.001038 281.76 12.307037 296.21402 14.808038 310.254C 31.025036 313.924 34.11004 326.76 55.58304 326.76L55.58304 326.76L55.583 326.76z" stroke="none" fill="#63C2FC" fill-rule="nonzero" />
    <path d="M402.318 85.067L396.445 83.455C 377.366 78.218 369.87402 55.166 382.229 39.713L382.229 39.713L386.033 34.955C 387.007 33.738003 385.753 32.012 384.29398 32.562L384.29398 32.562L378.619 34.703C 360.09598 41.689 340.47498 27.428999 341.401 7.6539993L341.401 7.6539993L341.685 1.6089993C 341.758 0.050999284 339.729 -0.6090007 338.872 0.69399923L338.872 0.69399923L335.54202 5.7589993C 324.66602 22.301998 300.40802 22.301998 289.532 5.7589993L289.532 5.7589993L286.20203 0.6939993C 285.34503 -0.6090007 283.31604 0.049999297 283.38904 1.6089993L283.38904 1.6089993L283.67203 7.6529994C 284.59903 27.428 264.97702 41.689 246.45403 34.702L246.45403 34.702L240.78003 32.561C 239.32103 32.011 238.06802 33.736 239.04103 34.953L239.04103 34.953L242.84602 39.711998C 251.75603 50.857 250.34102 65.951 241.70403 75.466995C 255.09602 90.79399 269.66504 114.133995 278.85504 148.531C 282.11603 153.23901 283.97104 159.046 283.67203 165.436L283.67203 165.436L283.48303 169.466C 283.68002 170.574 283.87305 171.69101 284.05902 172.81801C 284.71103 173.251 285.67603 173.195 286.20203 172.395L286.20203 172.395L289.532 167.33C 300.40802 150.788 324.66602 150.788 335.54202 167.33L335.54202 167.33L338.872 172.395C 339.729 173.698 341.758 173.039 341.685 171.481L341.685 171.481L341.402 165.437C 340.475 145.662 360.09702 131.402 378.62 138.388L378.62 138.388L384.294 140.528C 385.75302 141.078 387.006 139.354 386.03302 138.136L386.03302 138.136L382.22803 133.376C 369.87302 117.923004 377.36502 94.871 396.44403 89.634L396.44403 89.634L402.31702 88.022C 403.821 87.612 403.821 85.479004 402.31802 85.067L402.31802 85.067L402.318 85.067z" stroke="none" fill="#FEDB65" fill-rule="nonzero" />
    <path d="M340.126 125.633C 340.315 123.033005 338.617 120.658005 336.111 119.941C 284.995 105.316 293.602 64.385 298.83398 49.118004C 299.82498 46.226006 298.293 43.015003 295.386 42.069004C 278.04398 36.432003 282.71 16.373005 282.71 16.373005L282.71 16.373005L282.70798 16.372005C 278.55597 31.329006 262.115 40.607006 246.45697 34.701004L246.45697 34.701004L240.78297 32.560005C 239.32397 32.010006 238.07097 33.735004 239.04398 34.952003L239.04398 34.952003L242.84897 39.711002C 251.75897 50.856003 250.34396 65.950005 241.70697 75.466C 255.09897 90.793 269.66797 114.133 278.85797 148.53C 282.11996 153.238 283.97498 159.045 283.67496 165.435L283.67496 165.435L283.48596 169.465C 283.68295 170.573 283.87598 171.69 284.06195 172.817C 284.71396 173.25 285.67896 173.194 286.20395 172.394L286.20395 172.394L289.53394 167.329C 300.40994 150.78699 324.66794 150.78699 335.54294 167.329L335.54294 167.329L338.87292 172.394C 339.72992 173.69699 341.7589 173.038 341.6859 171.48L341.6859 171.48L341.40292 165.43599C 340.9099 154.909 346.23993 145.94598 354.12692 140.91798C 341.0299 140.91998 339.70392 131.45598 340.12592 125.63298L340.12592 125.63298L340.126 125.633z" stroke="none" fill="#FEC959" fill-rule="nonzero" />
    <path d="M357.271 86.546C 357.271 98.89868 352.9037 109.442345 344.169 118.177C 335.43436 126.91167 324.8907 131.27899 312.538 131.27899C 300.1853 131.27899 289.64166 126.91167 280.90698 118.177C 272.17233 109.442345 267.805 98.89868 267.805 86.546C 267.805 74.19333 272.17233 63.649654 280.90698 54.91499C 289.64166 46.18033 300.1853 41.812996 312.538 41.812996C 324.8907 41.812996 335.43436 46.18033 344.169 54.91499C 352.9037 63.649654 357.271 74.19333 357.271 86.546C 357.271 87.06654 357.2619 87.58693 357.24374 88.107155" stroke="none" fill="#FEB64D" fill-rule="nonzero" />
    <path d="M339.31 122.387C 338.6 121.234 337.485 120.334 336.111 119.941C 284.995 105.316 293.602 64.385 298.83398 49.118004C 299.421 47.404003 299.11798 45.583004 298.172 44.183002C 280.516 50.169003 267.804 66.867004 267.804 86.546005C 267.804 111.25201 287.83197 131.28 312.537 131.28C 322.578 131.27899 331.845 127.971 339.31 122.387z" stroke="none" fill="#FC9D35" fill-rule="nonzero" />
    <path d="M456.412 324.76C 431.35898 324.76 431.35898 307.273 406.305 307.273C 381.253 307.273 381.253 324.76 356.19998 324.76C 331.14798 324.76 331.14798 307.273 306.09598 307.273C 281.04697 307.273 281.04697 324.76 255.99799 324.76C 230.94598 324.76 230.94598 307.273 205.89398 307.273C 180.84198 307.273 180.84198 324.76 155.78899 324.76C 130.73698 324.76 130.73698 307.273 105.68498 307.273C 80.63398 307.273 80.63398 324.76 55.58298 324.76C 33.95598 324.76 30.987982 311.734 14.462982 308.172C 19.683983 339.02 30.671982 367.90698 46.274982 393.687C 54.254982 392.988 62.682983 392.603 71.66399 392.603C 149.478 392.603 187.4 420.448 226.333 447.587C 268.133 476.725 317.654 489.479 366.216 485.86002C 434.431 451.43402 484.35602 386.052 497.536 308.172C 481.009 311.733 478.04202 324.76 456.41202 324.76L456.41202 324.76L456.412 324.76z" stroke="none" fill="#24447F" fill-rule="nonzero" />
    <path d="M255.998 324.76C 230.946 324.76 230.946 307.273 205.894 307.273C 180.841 307.273 180.841 324.76 155.789 324.76C 130.737 324.76 130.73601 307.273 105.685 307.273C 80.63399 307.273 80.633995 324.76 55.582996 324.76C 33.955994 324.76 30.987997 311.734 14.462997 308.172C 19.683998 339.02 30.671997 367.90698 46.275997 393.687C 54.254997 392.988 62.684 392.603 71.664 392.603C 149.477 392.603 187.4 420.448 226.33301 447.587C 258.922 470.30402 296.204 483.06 334.066 485.865C 333.40802 485.15198 332.72202 484.431 331.98602 483.69498C 310.60803 462.317 320.734 444.11298 327.545 436.01297C 329.82 433.30698 329.807 429.39197 327.583 426.64398C 310.445 405.47797 320.949 386.95798 327.668 378.67297C 329.889 375.93396 329.894 372.01996 327.634 369.31396C 302.033 338.67197 331.987 316.60095 331.987 316.60095C 325.432 312.04395 319.181 307.27396 306.097 307.27396C 281.047 307.27295 281.047 324.75995 255.99799 324.75995L255.99799 324.75995L255.998 324.76z" stroke="none" fill="#1A396B" fill-rule="nonzero" />
    <path d="M456.412 382.218C 431.35898 382.218 431.35898 364.731 406.305 364.731C 381.253 364.731 381.253 382.218 356.19998 382.218C 331.14798 382.218 331.14798 364.731 306.09598 364.731C 281.04697 364.731 281.04697 382.218 255.99799 382.218C 230.94598 382.218 230.94598 364.731 205.89398 364.731C 180.84198 364.731 180.84198 382.218 155.78899 382.218C 130.73698 382.218 130.73698 364.731 105.68498 364.731C 80.63398 364.731 80.63398 382.218 55.58298 382.218C 47.51598 382.218 42.05198 380.401 37.50698 377.942C 40.23798 383.309 43.16598 388.55798 46.27198 393.688C 54.25298 392.98898 62.68198 392.60397 71.66398 392.60397C 149.47798 392.60397 187.39998 420.44897 226.33298 447.58798C 268.13098 476.72397 317.64798 489.47897 366.20697 485.86197C 412.78497 462.35898 450.84097 424.43097 474.49298 377.93997C 469.94797 380.399 464.482 382.21796 456.412 382.21796L456.412 382.21796L456.412 382.218z" stroke="none" fill="#3567C3" fill-rule="nonzero" />
    <path d="M255.998 382.218C 230.946 382.218 230.946 364.731 205.894 364.731C 180.841 364.731 180.841 382.218 155.789 382.218C 130.737 382.218 130.73601 364.731 105.685 364.731C 80.63399 364.731 80.633995 382.218 55.582996 382.218C 47.515995 382.218 42.051994 380.401 37.506996 377.942C 40.237995 383.309 43.166996 388.55798 46.271996 393.688C 54.252995 392.98898 62.681995 392.60397 71.663994 392.60397C 149.47699 392.60397 187.4 420.44897 226.33301 447.58798C 258.922 470.305 296.204 483.06198 334.066 485.86597C 333.40802 485.15295 332.721 484.43198 331.98502 483.69595C 310.60703 462.31796 320.733 444.11395 327.544 436.01395C 329.819 433.30795 329.806 429.39294 327.582 426.64496C 310.444 405.47894 320.948 386.95895 327.667 378.67395C 329.223 376.75494 329.666 374.26495 329.03 372.01196C 323.399 368.17896 317.216 364.73196 306.095 364.73196C 281.047 364.72995 281.047 382.21796 255.998 382.21796L255.998 382.21796L255.998 382.218z" stroke="none" fill="#24447F" fill-rule="nonzero" />
    <path d="M406.305 422.188C 381.253 422.188 381.253 439.675 356.19998 439.675C 331.14798 439.675 331.14798 422.188 306.09598 422.188C 281.04697 422.188 281.04697 439.675 255.99799 439.675C 230.94598 439.675 230.94598 422.188 205.89398 422.188C 200.07397 422.188 195.61497 423.13898 191.87099 424.58798C 203.93 431.85498 215.09099 439.74997 226.33398 447.58698C 268.12698 476.71896 317.637 489.47498 366.19 485.86197C 392.319 472.67697 415.769 454.95596 435.497 433.72595C 427.519 428.65695 421.54602 422.18796 406.30502 422.18796L406.30502 422.18796L406.305 422.188z" stroke="none" fill="#6194E0" fill-rule="nonzero" />
    <path d="M255.998 439.675C 230.946 439.675 230.946 422.188 205.894 422.188C 200.073 422.188 195.61499 423.13898 191.871 424.58798C 203.93001 431.85498 215.091 439.74997 226.334 447.58698C 258.923 470.304 296.20502 483.06097 334.06702 485.86597C 333.40802 485.15295 332.72202 484.43097 331.98602 483.69498C 310.60803 462.317 320.734 444.11298 327.545 436.01297C 329.12402 434.13498 329.575 431.67896 328.975 429.42996C 323.359 425.61298 317.18 422.18896 306.096 422.18896C 281.047 422.18796 281.047 439.67496 255.99802 439.67496L255.99802 439.67496L255.998 439.675z" stroke="none" fill="#3567C3" fill-rule="nonzero" />
    <path d="M135.766 195.99C 145.14 217.639 165.90701 242.92601 211.87701 249.751C 237.33902 253.531 270.91602 265.426 286.45602 300.592L286.45602 300.592L287.45 302.738C 289.04102 278.163 290.02002 252.30801 290.02002 225.871C 290.02002 107.961 235.86702 64.235 217.62302 52.850006C 213.99802 50.588005 209.41402 50.588005 205.78801 52.850006C 189.29901 63.140007 143.48102 99.85501 134.819 193.876L134.819 193.876L135.766 195.99z" stroke="none" fill="#E1F0FF" fill-rule="nonzero" />
    <path d="M280.314 369.745C 273.553 348.059 254.443 316.199 200.484 308.189C 171.612 303.902 149.74399 291.802 135.48 272.224L135.48 272.224L134.29399 270.718C 138.03099 365.849 152.428 447.336 158.64299 478.84998C 160.23898 486.942 167.32799 492.77798 175.57599 492.77798L175.57599 492.77798L211.70699 492.77798L247.83798 492.77798C 256.08597 492.77798 263.175 486.942 264.771 478.84998C 268.593 459.46896 275.511 421.18597 281.13998 372.455L281.13998 372.455L280.314 369.745z" stroke="none" fill="#FF3060" fill-rule="nonzero" />
    <path d="M275.461 415.891C 241.65201 424.606 229.086 403.177 225.415 394.26898C 224.611 392.31897 222.526 391.20798 220.46999 391.68C 208.91199 394.335 203.10898 388.28598 200.69699 384.503C 199.693 382.929 197.82199 382.166 196.00299 382.58398C 153.28899 392.41098 140.11699 352.086 140.049 351.879C 145.954 410.352 154.29799 456.81598 158.64299 478.85C 160.23898 486.94202 167.32799 492.778 175.57599 492.778L175.57599 492.778L211.70699 492.778L247.83798 492.778C 256.08597 492.778 263.175 486.94202 264.771 478.85C 267.36398 465.693 271.385 443.821 275.461 415.891z" stroke="none" fill="#E22953" fill-rule="nonzero" />
    <path d="M212.042 248.637C 163.59702 241.44499 143.45001 213.599 135.073 191.267C 133.991 202.025 133.39099 213.537 133.39099 225.871C 133.39099 241.709 133.743 257.338 134.36699 272.609C 146.19699 288.98602 166.26599 304.247 200.319 309.302C 258.156 317.889 275.547 353.92902 280.768 375.622C 283.473 352.64902 285.906 327.269 287.598 300.389C 278.586 279.816 258.19 255.48901 212.04199 248.63701L212.04199 248.63701L212.042 248.637z" stroke="none" fill="#FEB64D" fill-rule="nonzero" />
    <path d="M211.705 237.284C 207.038 237.284 203.255 233.50099 203.255 228.834L203.255 228.834L203.255 116.196C 203.255 111.529 207.03801 107.746 211.705 107.746C 216.372 107.746 220.155 111.529 220.155 116.196L220.155 116.196L220.155 228.834C 220.156 233.501 216.373 237.284 211.705 237.284z" stroke="none" fill="#C7E6FF" fill-rule="nonzero" />
    <path d="M211.705 303.893C 207.038 303.893 203.255 300.11002 203.255 295.443L203.255 295.443L203.255 265.672C 203.255 261.005 207.03801 257.222 211.705 257.222C 216.372 257.222 220.155 261.00497 220.155 265.672L220.155 265.672L220.155 295.443C 220.156 300.10898 216.373 303.893 211.705 303.893z" stroke="none" fill="#FEDB65" fill-rule="nonzero" />
    <path d="M211.706 505.207C 204.84099 505.207 199.276 499.642 199.276 492.777L199.276 492.777L199.276 364.30402C 199.276 357.43903 204.841 351.87402 211.706 351.87402C 218.57098 351.87402 224.13599 357.43903 224.13599 364.30402L224.13599 364.30402L224.13599 492.77704C 224.13599 499.64203 218.57098 505.20703 211.706 505.20703L211.706 505.20703L211.706 505.207z" stroke="none" fill="#E22953" fill-rule="nonzero" />
    <path d="M211.706 505.207C 218.571 505.207 224.13599 499.642 224.13599 492.777L224.13599 492.777L224.13599 392.557C 223.13599 391.739 221.79898 391.374 220.46898 391.67902C 208.91098 394.334 203.10797 388.285 200.69598 384.502C 200.32599 383.92102 199.83598 383.453 199.27599 383.11102L199.27599 383.11102L199.27599 492.77603C 199.27599 499.64203 204.84099 505.20703 211.706 505.20703L211.706 505.20703L211.706 505.207z" stroke="none" fill="#D11848" fill-rule="nonzero" />
    <path d="M226.334 445.587C 187.4 418.44702 149.478 390.603 71.66499 390.603C 62.259995 390.603 53.443993 391.01498 45.132996 391.779C 87.80899 463.745 166.263 512 256 512C 297.49 512 336.563 501.672 370.811 483.469C 320.788 488.26898 269.453 475.64398 226.334 445.587z" stroke="none" fill="#FEEAAD" fill-rule="nonzero" />
    <path d="M45.132 391.778C 73.306 439.28802 117.075 476.459 169.386 496.239C 180.466 490.21902 202.175 474.79102 181.707 454.324C 155.119 427.736 199.275 427.195 199.275 427.195L199.275 427.195L199.273 427.18802C 167.954 407.16302 131.67099 390.60202 71.662994 390.60202C 62.258995 390.60202 53.442993 391.014 45.131996 391.778L45.131996 391.778L45.132 391.778z" stroke="none" fill="#FEDB65" fill-rule="nonzero" />
</g>
</svg>